<?xml version="1.0" encoding="utf-8"?><svg width="114" height="47" viewBox="0 0 114 47" xmlns="http://www.w3.org/2000/svg" xmlns:xlink="http://www.w3.org/1999/xlink"><svg id="facebook" data-name="Layer 1" width="23.23" height="44.01" viewBox="-1 -1 23.23 44.01" x="53.78" xmlns="http://www.w3.org/2000/svg"><defs><style>.acls-1{fill:#fff}</style></defs><path class="acls-1" d="M21.23.31V7H17.4a3.55 3.55 0 0 0-2.85.91 4.26 4.26 0 0 0-.74 2.72v4.77H21l-1 7.47h-6.19V42H6.27V22.85H0v-7.47h6.27V9.85q0-4.69 2.55-7.28A9 9 0 0 1 15.63 0a39.57 39.57 0 0 1 5.6.31z"/></svg><svg aria-hidden="true" style="position:absolute;width:0;height:0" overflow="hidden" viewBox="-1 -1 2 2" width="2" height="2" id="icons" y="44.06" xmlns="http://www.w3.org/2000/svg"><defs><symbol id="bicon-triangle-left" viewBox="0 0 20 20"><path d="M14 5v10l-9-5 9-5z"/></symbol><symbol id="bicon-triangle-right" viewBox="0 0 20 20"><path d="M15 10l-9 5V5l9 5z"/></symbol><symbol id="bicon-check" viewBox="0 0 20 20"><path d="M8.294 16.998c-.435 0-.847-.203-1.111-.553L3.61 11.724a1.392 1.392 0 0 1 .27-1.951 1.392 1.392 0 0 1 1.953.27l2.351 3.104 5.911-9.492c.407-.652 1.267-.852 1.921-.445s.854 1.266.446 1.92L9.478 16.34a1.39 1.39 0 0 1-1.12.656c-.022.002-.042.002-.064.002z"/></symbol><symbol id="bicon-circle-with-cross" viewBox="0 0 20 20"><path d="M10 1.6a8.4 8.4 0 1 0 0 16.8 8.4 8.4 0 0 0 0-16.8zm4.789 11.461L13.06 14.79 10 11.729l-3.061 3.06L5.21 13.06 8.272 10 5.211 6.939 6.94 5.211 10 8.271l3.061-3.061 1.729 1.729L11.728 10l3.061 3.061z"/></symbol><symbol id="bicon-circle-with-minus" viewBox="0 0 20 20"><path d="M10 1.6a8.4 8.4 0 1 0 0 16.8 8.4 8.4 0 0 0 0-16.8zm5 9.4H5V9h10v2z"/></symbol><symbol id="bicon-circle-with-plus" viewBox="0 0 20 20"><path d="M10 1.6a8.4 8.4 0 1 0 0 16.8 8.4 8.4 0 0 0 0-16.8zm5 9.4h-4v4H9v-4H5V9h4V5h2v4h4v2z"/></symbol><symbol id="bicon-cw" viewBox="0 0 20 20"><path d="M19.315 10h-2.372v-.205c-.108-4.434-3.724-7.996-8.169-7.996C4.259 1.799.6 5.471.6 10s3.659 8.199 8.174 8.199a8.13 8.13 0 0 0 5.033-1.738l-1.406-1.504a6.099 6.099 0 0 1-3.627 1.193c-3.386 0-6.131-2.754-6.131-6.15s2.745-6.15 6.131-6.15c3.317 0 6.018 2.643 6.125 5.945V10h-2.672l3.494 3.894L19.315 10z"/></symbol><symbol id="bicon-heart-outlined" viewBox="0 0 20 20"><path d="M17.19 4.156c-1.672-1.535-4.383-1.535-6.055 0L10 5.197 8.864 4.156c-1.672-1.535-4.382-1.535-6.054 0-1.881 1.726-1.881 4.519 0 6.245L10 17l7.19-6.599c1.88-1.726 1.88-4.52 0-6.245zm-1.066 5.219L10 15.09 3.875 9.375c-.617-.567-.856-1.307-.856-2.094s.138-1.433.756-1.999c.545-.501 1.278-.777 2.063-.777s1.517.476 2.062.978L10 7.308l2.099-1.826c.546-.502 1.278-.978 2.063-.978s1.518.276 2.063.777c.618.566.755 1.212.755 1.999s-.238 1.528-.856 2.095z"/></symbol><symbol id="bicon-heart" viewBox="0 0 20 20"><path d="M17.19 4.155c-1.672-1.534-4.383-1.534-6.055 0L10 5.197 8.864 4.155c-1.672-1.534-4.382-1.534-6.054 0-1.881 1.727-1.881 4.52 0 6.246L10 17l7.19-6.599c1.88-1.726 1.88-4.52 0-6.246z"/></symbol><symbol id="bicon-magnifying-glass" viewBox="0 0 20 20"><path d="M17.545 15.467l-3.779-3.779a6.15 6.15 0 0 0 .898-3.21c0-3.417-2.961-6.377-6.378-6.377S2.1 4.87 2.1 8.287c0 3.416 2.961 6.377 6.377 6.377a6.15 6.15 0 0 0 3.115-.844l3.799 3.801a.953.953 0 0 0 1.346 0l.943-.943c.371-.371.236-.84-.135-1.211zM4.004 8.287c0-2.366 1.917-4.283 4.282-4.283s4.474 2.107 4.474 4.474c0 2.365-1.918 4.283-4.283 4.283s-4.473-2.109-4.473-4.474z"/></symbol><symbol id="bicon-man" viewBox="0 0 20 20"><path d="M10 4a2 2 0 1 0-.001-4.001A2 2 0 0 0 10 4zm5.978 7.583c-.385-1.775-1.058-4.688-2.042-5.894-.957-1.173-2.885-1.222-3.936-1.222-1.051 0-2.979.049-3.936 1.222-.984 1.206-1.657 4.119-2.042 5.894-.213.983 1.154 1.344 1.511.355.531-1.473.941-2.71 1.839-3.736C7.844 11.109 6.102 16.168 6 19a1 1 0 0 0 1.934.358C8.391 17.771 10 13.355 10 13.355s1.609 4.416 2.066 6.003A1 1 0 0 0 14 19c-.102-2.832-1.844-7.891-1.372-10.797.898 1.026 1.308 2.263 1.839 3.736.356.988 1.724.627 1.511-.356z"/></symbol><symbol id="bicon-shopping-cart" viewBox="0 0 20 20"><path d="M13 17a2 2 0 1 0 3.999.001A2 2 0 0 0 13 17zM3 17a2 2 0 1 0 4 0 2 2 0 0 0-4 0zm3.547-4.828L17.615 9.01A.564.564 0 0 0 18 8.5V3H4V1.4c0-.22-.181-.4-.399-.4H.399A.401.401 0 0 0 0 1.4V3h2l1.91 8.957.09.943v1.649c0 .219.18.4.4.4h13.2c.22 0 .4-.182.4-.4V13H6.752c-1.15 0-1.174-.551-.205-.828z"/></symbol><symbol id="bicon-squared-cross" viewBox="0 0 20 20"><path d="M16 2H4c-1.1 0-2 .9-2 2v12c0 1.1.9 2 2 2h12c1.1 0 2-.9 2-2V4c0-1.1-.9-2-2-2zm-2.939 12.789L10 11.729l-3.061 3.06-1.729-1.728L8.271 10l-3.06-3.061L6.94 5.21 10 8.271l3.059-3.061 1.729 1.729L11.729 10l3.06 3.061-1.728 1.728z"/></symbol><symbol id="bicon-stopwatch" viewBox="0 0 20 20"><path d="M7.376 6.745c-.447.275 1.197 4.242 1.598 4.888a1.206 1.206 0 0 0 2.053-1.266c-.397-.648-3.205-3.898-3.651-3.622zm-.335-4.343a8.98 8.98 0 0 1 5.918 0c.329.114.765-.115.572-.611-.141-.36-.277-.712-.332-.855-.131-.339-.6-.619-.804-.665C11.623.097 10.823 0 10 0S8.377.097 7.604.271c-.204.046-.672.326-.803.665l-.332.855c-.193.496.243.726.572.611zm12.057.784a10.132 10.132 0 0 0-1.283-1.285c-.153-.129-.603-.234-.888.051l-1.648 1.647c.402.288.793.605 1.155.966s.677.752.966 1.155l1.647-1.647c.286-.286.181-.735.051-.887zM10 2.9a8.1 8.1 0 1 0-.001 16.201A8.1 8.1 0 0 0 10 2.9zm0 14.201A6.1 6.1 0 1 1 10.001 4.9 6.1 6.1 0 0 1 10 17.1z"/></symbol></defs></svg><svg id="twitter" data-name="Layer 1" width="53.78" height="44.06" viewBox="-1 -1 53.78 44.06" xmlns="http://www.w3.org/2000/svg"><defs><style>.ccls-1{fill:#fff}</style></defs><path class="ccls-1" d="M51.78 5a22.23 22.23 0 0 1-5.32 5.52v1.38a30.15 30.15 0 0 1-1.25 8.53 30.81 30.81 0 0 1-3.76 8.13 32.1 32.1 0 0 1-6.06 6.92 27 27 0 0 1-8.48 4.8 31 31 0 0 1-10.62 1.8A29.47 29.47 0 0 1 0 37.29a22.71 22.71 0 0 0 2.56.13 20.78 20.78 0 0 0 13.17-4.53 10.63 10.63 0 0 1-9.92-7.36 13.45 13.45 0 0 0 2 .16 11 11 0 0 0 2.79-.36 10.44 10.44 0 0 1-6.09-3.67 10.25 10.25 0 0 1-2.41-6.75v-.13a10.52 10.52 0 0 0 4.8 1.34 10.6 10.6 0 0 1-3.45-3.78 10.34 10.34 0 0 1-1.28-5.07 10.4 10.4 0 0 1 1.45-5.33 30.08 30.08 0 0 0 9.71 7.83A29.57 29.57 0 0 0 25.53 13a11.79 11.79 0 0 1-.26-2.43 10.23 10.23 0 0 1 3-7.48 10.64 10.64 0 0 1 15 0l.21.22A20.81 20.81 0 0 0 50.33.8a10.3 10.3 0 0 1-4.67 5.85A21.14 21.14 0 0 0 51.78 5z"/></svg><svg id="youtube" data-name="Layer 1" width="36.75" height="44" viewBox="-1 -1 36.75 44" x="77.01" xmlns="http://www.w3.org/2000/svg"><defs><style>.dcls-1{fill:#fff}</style></defs><path class="dcls-1" d="M22.13 29.15v5q0 1.57-.91 1.57a1.5 1.5 0 0 1-1.06-.52v-7.11a1.5 1.5 0 0 1 1.06-.54q.91 0 .91 1.6zm7.92 0v1.08h-2.1v-1.06q0-1.59 1.06-1.59t1 1.59zM7.42 24h2.5v-2.14h-7.3v2.2h2.46V37.4h2.34V24zm6.75 13.4h2.09V25.82h-2.09v8.86a1.86 1.86 0 0 1-1.31 1 .48.48 0 0 1-.49-.47 6.52 6.52 0 0 1 0-.82v-8.57h-2.14V35a5.79 5.79 0 0 0 .19 1.71 1.26 1.26 0 0 0 1.36.87 3.43 3.43 0 0 0 2.39-1.43v1.25zm10.05-3.47v-4.6A8.33 8.33 0 0 0 24 27a1.63 1.63 0 0 0-1.67-1.31A2.82 2.82 0 0 0 20.16 27v-5.1h-2.08v15.5h2.09v-1.13a2.91 2.91 0 0 0 2.18 1.31A1.62 1.62 0 0 0 24 36.27a8.61 8.61 0 0 0 .22-2.35zm7.92-.24v-.3H30a11.6 11.6 0 0 1 0 1.43.9.9 0 0 1-.94.85q-1.08 0-1.08-1.61V32h4.19v-2.41a4.65 4.65 0 0 0-.66-2.72 3.2 3.2 0 0 0-5 0 4.52 4.52 0 0 0-.66 2.72v4.05a4.4 4.4 0 0 0 .66 2.72 3 3 0 0 0 2.49 1.2 2.9 2.9 0 0 0 3-2.51 10.31 10.31 0 0 0 .09-1.36zM17.89 12.3V7.38q0-1.61-1-1.61t-1 1.61v4.92q0 1.64 1 1.64t1-1.64zm16.85 17.6a40.6 40.6 0 0 1-.61 8.2 4.45 4.45 0 0 1-1.36 2.32 4.1 4.1 0 0 1-2.39 1.08 125.31 125.31 0 0 1-13 .49 125.31 125.31 0 0 1-13-.49A4.15 4.15 0 0 1 2 40.42 4.28 4.28 0 0 1 .63 38.1 39.76 39.76 0 0 1 0 29.9a40.6 40.6 0 0 1 .61-8.2A4.45 4.45 0 0 1 2 19.37a4.25 4.25 0 0 1 2.41-1.1q4.29-.47 13-.47t13 .47a4.4 4.4 0 0 1 3.75 3.42 39.76 39.76 0 0 1 .58 8.21zM11.35 0h2.39l-2.83 9.35v6.35H8.57V9.35a39.68 39.68 0 0 0-1.43-5Q6.27 2 5.61 0H8.1l1.67 6.16zM20 7.8v4.1a4.59 4.59 0 0 1-.66 2.76 2.88 2.88 0 0 1-2.49 1.19 2.9 2.9 0 0 1-2.46-1.19 4.68 4.68 0 0 1-.66-2.76V7.8a4.59 4.59 0 0 1 .66-2.74 2.9 2.9 0 0 1 2.46-1.19 2.88 2.88 0 0 1 2.49 1.19A4.59 4.59 0 0 1 20 7.8zM27.87 4v11.7h-2.13v-1.27a3.37 3.37 0 0 1-2.41 1.45A1.31 1.31 0 0 1 22 15a6 6 0 0 1-.19-1.76V4h2.13v8.6a6.14 6.14 0 0 0 0 .82.49.49 0 0 0 .47.52 1.87 1.87 0 0 0 1.31-1V4h2.16z"/></svg></svg>